<svg width="75" height="100" viewBox="0 0 75 100" fill="none" xmlns="http://www.w3.org/2000/svg">
<path d="M75.0002 85V100H0.229503L0.0162964 85L47.4754 57.6536C54.8573 53.9625 60.0001 46.2949 60.0001 37.4802C60.0001 25.0538 49.9265 14.9802 37.5001 14.9802C27.0949 14.9802 18.3393 22.0433 15.7664 31.6365L1.30181 27.6693C5.62107 11.727 20.1911 3.27826e-06 37.5001 3.27826e-06C58.2108 3.27826e-06 75.0001 16.7894 75.0001 37.5001C75.0001 51.8632 66.8452 64.3827 54.9873 70.6817L30.6429 84.7377C30.1641 85 30.1886 85 30.7164 85H75.0002Z" fill="white"/>
</svg>
