<svg width="73" height="100" viewBox="0 0 73 100" fill="none" xmlns="http://www.w3.org/2000/svg">
<path d="M15.7063 30.3457L0.459709 26.2254C1.76916 17.5203 14.4561 0.110279 38.0676 0.110279C65.0113 0.110279 72.5403 19.3823 72.5403 29.4289C72.5403 39.4755 63.972 48.1195 59.1633 49.9661C63.79 52.3948 72.575 60.4705 72.575 70.5429C72.575 79.9917 65.0387 99.8897 38.0691 99.8897C14.4349 99.8897 1.73572 82.4629 0.425011 73.7495L15.6863 69.6252C17.0341 74.455 23.3976 84.1147 38.0691 84.1147C52.7407 84.1147 56.6099 75.0668 56.7105 70.5429C57.205 63.7313 45.8703 57.5678 30.2249 57.5678L30.2264 42.3887C45.661 42.3887 57.1851 36.2339 56.6911 29.4289C56.5905 24.9093 52.7251 15.8702 38.0676 15.8702C23.4102 15.8702 17.0528 25.5205 15.7063 30.3457Z" fill="white"/>
</svg>
