<svg width="74" height="100" viewBox="0 0 74 100" fill="none" xmlns="http://www.w3.org/2000/svg">
<path d="M70.3119 14.9945V1.52588e-05H0.294006V14.9945V52.6488L14.7547 56.6149C17.327 47.0242 26.0802 39.963 36.4826 39.963C48.9056 39.963 58.978 50.0737 58.978 62.4968C58.978 74.9186 48.9081 84.9885 36.4863 84.9885C26.0849 84.9885 17.3326 77.928 14.7606 68.3382L0.301388 72.304C4.61906 88.2404 19.1836 99.9631 36.4863 99.9631C57.1893 99.9631 73.9725 83.18 73.9725 62.4769C73.9725 41.7717 57.1877 24.9869 36.4826 24.9869C28.5759 24.9869 21.241 27.4345 15.1941 31.6134C14.7547 31.9217 14.7547 31.8906 14.7547 31.3184V14.9945H70.3119Z" fill="white"/>
</svg>
