<svg width="75" height="101" viewBox="0 0 75 101" fill="none" xmlns="http://www.w3.org/2000/svg">
<path fill-rule="evenodd" clip-rule="evenodd" d="M75.0001 62.6284C75.0001 83.3107 58.2337 100.077 37.5514 100.077C16.869 100.077 0.102661 83.3107 0.102661 62.6284C0.102661 55.5927 2.04288 49.0101 5.41746 43.3867L30.2714 0.0569057H47.508L33.1124 24.9931C32.8349 25.4738 32.8349 25.4738 33.3735 25.4101C34.7451 25.2578 36.1391 25.1797 37.5514 25.1797C58.2337 25.1797 75.0001 41.946 75.0001 62.6284ZM37.4957 84.9894C49.9198 84.9894 59.9915 74.9177 59.9915 62.4936C59.9915 50.0696 49.9198 39.9979 37.4957 39.9979C25.0717 39.9979 15 50.0696 15 62.4936C15 74.9177 25.0717 84.9894 37.4957 84.9894Z" fill="white"/>
</svg>
