<svg width="76" height="101" viewBox="0 0 76 101" fill="none" xmlns="http://www.w3.org/2000/svg">
<path fill-rule="evenodd" clip-rule="evenodd" d="M62.6922 46.6679C67.7363 41.8227 70.796 35.4628 70.796 28.4983C70.796 23.3154 69.1015 18.4674 66.1557 14.3293C62.4484 8.4247 55.7235 2.62539 43.5293 1.35291C41.8256 1.11955 40.0775 0.998257 38.296 0.998257C36.2319 0.998257 34.2128 1.16107 32.2556 1.47234C21.6719 2.83018 15.3342 7.67108 11.5408 12.882C7.91794 17.3177 5.79596 22.6983 5.79596 28.4983C5.79596 35.5807 8.96017 42.0379 14.1577 46.9128C14.5762 47.3146 14.8413 47.5367 14.877 47.5662L14.7644 47.6386C14.3543 47.8855 12.905 48.7944 11.0895 50.3517C4.70992 55.7301 0.795959 62.9985 0.795959 70.9983C0.795959 78.1631 3.93553 84.7412 9.17417 89.9003C13.3633 94.4793 19.6766 98.5132 29.1878 100.107C32.1037 100.689 35.1547 100.998 38.296 100.998C41.0754 100.998 43.7842 100.756 46.3912 100.297C57.6531 98.7047 64.5905 93.7674 68.8624 88.3818C73.2282 83.4775 75.796 77.4778 75.796 70.9983C75.796 68.0381 75.2601 65.1782 74.2617 62.477C70.7956 52.7142 62.2051 47.8401 61.7373 47.5806L61.7187 47.5686C61.7425 47.549 62.1134 47.241 62.6922 46.6679ZM55.9047 28.4991C55.9047 35.4022 48.048 40.9983 38.3561 40.9983C28.6643 40.9983 20.8076 35.4022 20.8076 28.4991C20.8076 21.5961 28.6643 16 38.3561 16C48.048 16 55.9047 21.5961 55.9047 28.4991ZM38.4122 86C50.7931 86 60.8298 79.3316 60.8298 71.1057C60.8298 62.8798 50.7931 56.2114 38.4122 56.2114C26.0313 56.2114 15.9946 62.8798 15.9946 71.1057C15.9946 79.3316 26.0313 86 38.4122 86Z" fill="white"/>
</svg>
