<svg width="76" height="100" viewBox="0 0 76 100" fill="none" xmlns="http://www.w3.org/2000/svg">
<path fill-rule="evenodd" clip-rule="evenodd" d="M0.591985 37.4487C0.591987 16.7664 17.3583 2.54742e-06 38.0407 4.35553e-06C58.723 6.16363e-06 75.4894 16.7664 75.4894 37.4487C75.4894 44.4844 73.5492 51.0669 70.1746 56.6904L45.3206 100.02L28.084 100.02L42.6562 74.778C42.7571 74.6033 42.7571 74.6033 42.5232 74.6319C41.0535 74.8072 39.5576 74.8974 38.0407 74.8974C17.3583 74.8974 0.591984 58.131 0.591985 37.4487ZM38.0963 15.0877C25.6723 15.0877 15.6006 25.1594 15.6006 37.5834C15.6006 50.0075 25.6723 60.0791 38.0963 60.0791C50.5204 60.0791 60.592 50.0075 60.592 37.5834C60.592 25.1594 50.5204 15.0877 38.0963 15.0877Z" fill="white"/>
</svg>
