<svg width="76" height="100" viewBox="0 0 76 100" fill="none" xmlns="http://www.w3.org/2000/svg">
<path fill-rule="evenodd" clip-rule="evenodd" d="M75.9069 25.0149V99.9718H62.1351V92.0996C62.1351 91.3058 62.1351 91.3058 61.6174 91.8253C58.4343 94.8427 50.0677 100 37.9426 100C21.8749 100 0 87.6216 0 62.0388C0 36.4559 21.3656 24.0953 37.9426 24.0953C50.4746 24.0953 58.6585 29.0997 61.6632 32.0148C62.1351 32.5012 62.1351 32.5012 62.1351 31.7018V25.0149H75.9069ZM37.9535 86.3803C51.4108 86.3803 62.3202 75.4709 62.3202 62.0135C62.3202 48.5561 51.4108 37.6468 37.9535 37.6468C24.4961 37.6468 13.5867 48.5561 13.5867 62.0135C13.5867 75.4709 24.4961 86.3803 37.9535 86.3803Z" fill="white"/>
</svg>
