<svg width="77" height="101" viewBox="0 0 77 101" fill="none" xmlns="http://www.w3.org/2000/svg">
<path fill-rule="evenodd" clip-rule="evenodd" d="M0.541901 0.549187V100.49H14.1697V93.1027C14.1697 91.6464 14.1356 91.6464 15.1349 92.4936C21.6588 98.0245 29.1751 100.49 38.5414 100.49C59.5279 100.49 76.5409 83.4774 76.5409 62.4908C76.5409 41.5043 59.5279 24.4913 38.5414 24.4913C29.1719 24.4913 21.5907 27.0162 15.0519 32.5628C14.1697 33.3352 14.1697 33.3352 14.1697 32.0009V0.549187H0.541901ZM38.5603 86.9343C25.0025 86.9343 14.0117 75.9435 14.0117 62.3857C14.0117 48.8279 25.0025 37.8372 38.5603 37.8372C52.1181 37.8372 63.1088 48.8279 63.1088 62.3857C63.1088 75.9435 52.1181 86.9343 38.5603 86.9343Z" fill="white"/>
</svg>
