<svg width="77" height="101" viewBox="0 0 77 101" fill="none" xmlns="http://www.w3.org/2000/svg">
<path fill-rule="evenodd" clip-rule="evenodd" d="M76.4382 0.547485V100.489H62.8104V92.7422C62.8104 91.6447 62.8104 91.6447 62.0045 92.3561C55.4436 97.9825 47.8813 100.489 38.4387 100.489C17.4522 100.489 0.43924 83.4757 0.43924 62.4891C0.43924 41.5026 17.4522 24.4896 38.4387 24.4896C47.8446 24.4896 55.4483 27.0341 62.0044 32.6259C62.8104 33.3335 62.8104 33.3335 62.8104 32.0653V0.547485H76.4382ZM38.4198 86.9326C51.9776 86.9326 62.9684 75.9418 62.9684 62.384C62.9684 48.8262 51.9776 37.8355 38.4198 37.8355C24.862 37.8355 13.8713 48.8262 13.8713 62.384C13.8713 75.9418 24.862 86.9326 38.4198 86.9326Z" fill="white"/>
</svg>
