<svg width="77" height="113" viewBox="0 0 77 113" fill="none" xmlns="http://www.w3.org/2000/svg">
<path fill-rule="evenodd" clip-rule="evenodd" d="M62.8989 2.55925H76.474V68.0125C76.8489 82.687 69.8795 112.036 39.0032 112.036C15.4125 112.036 5.3399 98.3508 1.89991 86.6644L15.1514 83.1149C17.5224 90.2199 24.1003 98.4156 39.0032 98.4156C58.7321 98.4156 63.1296 78.8502 62.8623 69.0675C62.8623 67.9745 62.8623 67.9745 62.1078 68.7598C58.8635 71.8737 50.8181 76.8708 39.0032 76.8708C22.9137 76.8708 0.407738 64.5929 0.407738 38.985C0.407738 13.3771 21.1886 0.991895 39.0032 0.991895C52.1981 0.991895 59.6849 6.1804 62.3217 9.35171C62.8623 10.0711 62.8623 10.0711 62.8675 9.00216L62.8989 2.55925ZM38.436 63.3786C51.9141 63.3786 62.8402 52.4525 62.8402 38.9743C62.8402 25.4962 51.9141 14.5701 38.436 14.5701C24.9579 14.5701 14.0317 25.4962 14.0317 38.9743C14.0317 52.4525 24.9579 63.3786 38.436 63.3786Z" fill="white"/>
</svg>
