<svg width="43" height="137" viewBox="0 0 43 137" fill="none" xmlns="http://www.w3.org/2000/svg">
<path d="M28.8851 26.5957H42.5527L42.6256 89.3565L42.6256 106.991C42.7054 122.115 40.6644 132.42 25.6126 135.519C10.5608 138.618 2.27166 129.505 0.00857544 124.562L12.7739 119.977C14.1813 121.742 17.967 124.056 23.1441 122.115C27.4185 120.511 28.9324 117.086 28.9324 113.926L28.8851 26.5957Z" fill="white"/>
<path d="M42.7054 8.00482C42.7054 11.8785 39.5652 15.0187 35.6916 15.0187C31.8179 15.0187 28.6777 11.8785 28.6777 8.00482C28.6777 4.13118 31.8179 0.990975 35.6916 0.990975C39.5652 0.990975 42.7054 4.13118 42.7054 8.00482Z" fill="white"/>
</svg>
