<svg width="105" height="76" viewBox="0 0 105 76" fill="none" xmlns="http://www.w3.org/2000/svg">
<path d="M14.214 75.0331H0.0265435V29.108C0.0265435 12.7293 12.0361 0.00762939 29.4586 0.00762939C46.8811 0.00762939 52.49 9.61056 52.49 9.61056C52.49 9.61056 58.8765 0.00762939 75.0724 0.00762939C91.2684 0.00762939 104.629 10.3082 104.629 29.108V75.0331H90.3566V29.108C90.3566 29.108 90.3566 13.7324 75.0724 13.7324C59.7883 13.7324 59.6212 28.4625 59.6212 29.108V75.0331H45.1247V29.108C45.1247 28.1958 44.7032 13.7324 29.4586 13.7324C14.214 13.7324 14.214 29.108 14.214 29.108V75.0331Z" fill="white"/>
</svg>
