<svg width="77" height="113" viewBox="0 0 77 113" fill="none" xmlns="http://www.w3.org/2000/svg">
<path fill-rule="evenodd" clip-rule="evenodd" d="M13.9828 2.54574H0.407738V112.098H14.0195V69.054C14.0195 67.9609 14.0195 67.9609 14.7739 68.7463C18.0182 71.8602 26.0636 76.8573 37.8786 76.8573C53.9681 76.8573 76.474 64.5794 76.474 38.9715C76.474 13.3636 55.6931 0.978378 37.8786 0.978378C24.6836 0.978378 17.1968 6.16688 14.5601 9.33819C14.0195 10.0576 14.0195 10.0576 14.0142 8.98864L13.9828 2.54574ZM38.4458 63.3651C24.9676 63.3651 14.0415 52.4389 14.0415 38.9608C14.0415 25.4827 24.9676 14.5565 38.4458 14.5565C51.9239 14.5565 62.85 25.4827 62.85 38.9608C62.85 52.4389 51.9239 63.3651 38.4458 63.3651Z" fill="white"/>
</svg>
