<svg width="77" height="113" viewBox="0 0 77 113" fill="none" xmlns="http://www.w3.org/2000/svg">
<path fill-rule="evenodd" clip-rule="evenodd" d="M62.8989 2.54574H76.474V112.098H62.8623V69.054C62.8623 67.9609 62.8623 67.9609 62.1078 68.7463C58.8635 71.8602 50.8181 76.8573 39.0032 76.8573C22.9137 76.8573 0.407738 64.5794 0.407738 38.9715C0.407738 13.3636 21.1886 0.978378 39.0032 0.978378C52.1981 0.978378 59.6849 6.16688 62.3217 9.33819C62.8623 10.0576 62.8623 10.0576 62.8675 8.98864L62.8989 2.54574ZM38.436 63.3651C51.9141 63.3651 62.8402 52.4389 62.8402 38.9608C62.8402 25.4827 51.9141 14.5565 38.436 14.5565C24.9579 14.5565 14.0317 25.4827 14.0317 38.9608C14.0317 52.4389 24.9579 63.3651 38.436 63.3651Z" fill="white"/>
</svg>
