<svg width="57" height="79" viewBox="0 0 57 79" fill="none" xmlns="http://www.w3.org/2000/svg">
<path d="M28.9172 0.934998C46.0702 0.934998 53.9284 14.045 55.6751 20.5333L42.5845 24.2542C40.0205 16.6858 32.6902 15.0929 28.9455 15.1014C19.3569 15.123 17.6537 20.8569 17.3514 23.9295C16.8322 29.2057 23.8752 30.2525 27.8359 30.8411L27.9131 30.8526C58.0608 35.335 56.6641 53.9944 56.6181 55.3471C56.5721 56.6997 57.4922 78.935 28.9121 78.935C6.04793 78.935 0.178852 60.9174 0.102325 51.9086H13.6027C14.3255 63.0648 22.0304 64.6069 28.9121 64.7633C36.8332 64.9434 42.0212 63.0106 43.0252 57.2889C44.0292 51.5672 39.8551 46.6927 27.9131 45.2197C4.87077 42.3777 4.08913 29.615 3.81836 23.9112C3.54759 18.2074 7.47587 0.934998 28.9172 0.934998Z" fill="white"/>
</svg>
