<svg width="91" height="76" viewBox="0 0 91 76" fill="none" xmlns="http://www.w3.org/2000/svg">
<path d="M14.7336 0.0332947H0.99585V49.1512C0.99585 66.6396 14.1862 75.4883 26.9334 75.4883C39.6805 75.4883 45.819 66.6396 45.819 66.6396C45.819 66.6396 51.335 75.4883 65.3372 75.4883C79.3394 75.4883 91.4915 66.6396 90.941 49.1512V0.0332947H77.406V49.1512C77.406 49.1512 77.406 61.6577 65.3372 61.9878C52.8335 61.9878 52.8335 49.1512 52.8335 49.1512V0.0332947H39.3066V49.1512C39.3066 49.1512 39.3066 61.9878 26.9334 61.9878C14.7336 61.9878 14.7336 49.1512 14.7336 49.1512V0.0332947Z" fill="white"/>
</svg>
