<svg width="77" height="111" viewBox="0 0 77 111" fill="none" xmlns="http://www.w3.org/2000/svg">
<path d="M62.4912 0.567358H76.0662V66.0206C76.4411 80.6951 69.4718 110.044 38.5954 110.044C15.0047 110.044 4.93216 96.3589 1.49217 84.6725L14.7437 81.123C17.1147 88.228 23.6926 96.4237 38.5954 96.4237C58.3244 96.4237 62.7219 76.8583 62.4545 67.0756C62.4545 65.9826 62.4545 65.9826 61.7 66.7679C58.4558 69.8818 50.4104 74.8789 38.5954 74.8789C22.5059 74.8789 0 62.601 0 36.9931V0.567358H13.6239V36.9825C13.6239 50.4606 24.5501 61.3867 38.0282 61.3867C51.5063 61.3867 62.4912 50.4606 62.4912 36.9825V0.567358Z" fill="white"/>
</svg>
