<svg width="100" height="100" viewBox="0 0 100 100" fill="none" xmlns="http://www.w3.org/2000/svg">
<path fill-rule="evenodd" clip-rule="evenodd" d="M96.4539 39.4218L99.948 26.3818L80.0814 26.4373L87.2382 0.023283H73.7382L66.5712 26.4751L46.1147 26.5322L53.2972 0.023283H39.7972L32.6045 26.5699L12.7347 26.6254L9.2406 39.6654L29.0714 39.61L23.3926 60.569L3.50105 60.6246L0.00698853 73.6646L19.8595 73.6091L12.7169 99.9711H26.2169L33.3697 73.5714L53.8262 73.5143L46.6578 99.9711H60.1578L67.3364 73.4766L87.2203 73.421L90.7144 60.381L70.8695 60.4365L76.5483 39.4774L96.4539 39.4218ZM63.0381 39.5152L42.5816 39.5723L36.9029 60.5313L57.3593 60.4742L63.0381 39.5152Z" fill="white"/>
</svg>
