<svg width="76" height="126" viewBox="0 0 76 126" fill="none" xmlns="http://www.w3.org/2000/svg">
<path d="M74.604 39.0405L60.1118 42.957C59.4464 40.5727 57.4938 36.9488 53.8147 34.0186C50.5396 31.4101 45.8963 29.3513 39.5751 29.2059C39.338 29.2004 39.0986 29.1977 38.8568 29.1977C24.9245 29.1977 21.2503 37.7896 21.1547 42.0856C20.753 47.6187 23.2835 50.9365 33.1839 53.0582C34.8572 53.4168 36.741 53.7412 38.8568 54.0364C41.6858 54.4311 44.7976 54.9927 47.9771 55.8045C61.245 59.1924 75.6923 66.9379 75.6923 85.097C76.1309 94.6835 69.3777 113.857 38.8568 113.857C36.6229 113.857 34.5121 113.732 32.5185 113.497L29.3429 125.349L14.854 121.466L18.1697 109.092C4.69099 101.672 0.820773 87.3453 0.856971 79.0055H15.8587C15.7305 82.9141 17.1869 89.1389 22.3308 93.5626C25.4915 96.2808 30.0444 98.319 36.4774 98.722C37.2436 98.7701 38.0364 98.7949 38.8568 98.7949C53.4974 98.7949 60.7082 93.9193 60.7082 84.9897C60.7082 77.3735 53.9255 72.289 44.1572 70.0608C42.4727 69.6766 40.6994 69.3773 38.8568 69.1646C35.9569 68.8299 32.6438 68.4119 29.2642 67.6865C18.0436 65.2779 6.08964 59.48 6.08964 42.0856C6.34092 32.7962 13.2462 14.2175 38.8568 14.2175C40.4664 14.2175 42.0226 14.3026 43.5252 14.4637L47.2064 0.725506L61.6953 4.60779L57.8804 18.8452C68.159 24.3648 73.7758 33.5346 74.604 39.0405Z" fill="white"/>
</svg>
