<svg width="101" height="100" viewBox="0 0 101 100" fill="none" xmlns="http://www.w3.org/2000/svg">
<path d="M71.2686 0.101894L88.5891 0.101894L30.9521 99.9322H13.6316L71.2686 0.101894Z" fill="white"/>
<path fill-rule="evenodd" clip-rule="evenodd" d="M23.196 44.6936C35.5313 44.6936 45.531 34.6939 45.531 22.3586C45.531 10.0233 35.5313 0.0236206 23.196 0.0236206C10.8607 0.0236206 0.861023 10.0233 0.861023 22.3586C0.861023 34.6939 10.8607 44.6936 23.196 44.6936ZM23.196 29.8586C27.3381 29.8586 30.696 26.5007 30.696 22.3586C30.696 18.2165 27.3381 14.8586 23.196 14.8586C19.0539 14.8586 15.696 18.2165 15.696 22.3586C15.696 26.5007 19.0539 29.8586 23.196 29.8586Z" fill="white"/>
<path fill-rule="evenodd" clip-rule="evenodd" d="M78.467 99.9711C90.8023 99.9711 100.802 89.9714 100.802 77.6362C100.802 65.3009 90.8023 55.3012 78.467 55.3012C66.1318 55.3012 56.1321 65.3009 56.1321 77.6362C56.1321 89.9714 66.1318 99.9711 78.467 99.9711ZM78.467 85.1362C82.6092 85.1362 85.967 81.7783 85.967 77.6362C85.967 73.494 82.6092 70.1362 78.467 70.1362C74.3249 70.1362 70.967 73.494 70.967 77.6362C70.967 81.7783 74.3249 85.1362 78.467 85.1362Z" fill="white"/>
</svg>
