<svg width="73" height="101" viewBox="0 0 73 101" fill="none" xmlns="http://www.w3.org/2000/svg">
<path fill-rule="evenodd" clip-rule="evenodd" d="M65.7981 28.8923V35.2563H72.5683V50.3003H65.7981V68.0017C65.5649 78.9058 58.6961 100.714 33.0857 100.714C7.47523 100.714 0.484855 78.9058 0.190973 68.0017C0.0991348 61.7809 2.57141 47.6641 13.1952 40.9636C11.5972 39.4024 8.40129 34.0978 8.40129 25.3695C8.40129 14.4592 14.7381 2.22636 33.1424 1.0141C41.9417 0.43451 50.1903 5.34983 56.4176 10.9635L45.4855 21.2368C44.0344 19.5837 39.6997 16.2225 33.969 16.0021C26.8056 15.7265 23.2239 20.1899 23.3341 25.3695C23.4443 30.5492 25.0844 35.2563 31.9853 35.2563H50.7202V28.8923H65.7981ZM31.9853 50.3003H50.7102V68.0017C50.7102 82.9758 38.2269 86.0445 31.9853 85.7071C26.4383 86.056 15.3442 83.0035 15.3442 68.0017C15.3442 52.9999 26.4383 49.95 31.9853 50.3003Z" fill="white"/>
</svg>
