<svg width="100" height="100" viewBox="0 0 100 100" fill="none" xmlns="http://www.w3.org/2000/svg">
<path fill-rule="evenodd" clip-rule="evenodd" d="M85.3461 85.3454C76.3067 94.3741 63.8254 99.9574 50.04 99.9574C22.4479 99.9574 0.0800018 77.5895 0.0800018 49.9974C0.0800018 22.4052 22.4479 0.037384 50.04 0.037384C77.6321 0.037384 100 22.4052 100 49.9974C100 57.0912 98.5215 63.8398 95.8559 69.9517L73.1314 64.2257C68.4467 72.09 59.8586 77.3586 50.04 77.3586C35.2064 77.3586 23.1814 65.3336 23.1814 50.5C23.1814 35.6664 35.2064 23.6414 50.04 23.6414C64.8736 23.6414 76.8986 35.6664 76.8986 50.5C76.8986 50.7564 76.895 51.0119 76.8879 51.2666L87.2809 54.0469C87.4257 52.717 87.5 51.3658 87.5 49.9974C87.5 29.5628 70.9345 12.9974 50.5 12.9974C30.0655 12.9974 13.5 29.5628 13.5 49.9974C13.5 70.4319 30.0655 86.9974 50.5 86.9974C60.596 86.9974 69.7475 82.9538 76.4234 76.3977L85.3461 85.3454ZM63.9 50.5019C63.9 58.1566 57.6947 64.3619 50.04 64.3619C42.3853 64.3619 36.18 58.1566 36.18 50.5019C36.18 42.8472 42.3853 36.6419 50.04 36.6419C57.6947 36.6419 63.9 42.8472 63.9 50.5019Z" fill="white"/>
</svg>
