<svg width="75" height="100" viewBox="0 0 75 100" fill="none" xmlns="http://www.w3.org/2000/svg">
<path fill-rule="evenodd" clip-rule="evenodd" d="M0.0351098 0.0351098H38.9916C48.4625 0.249566 67.4045 6.23239 67.4045 28.4481C67.4045 37.003 64.7898 42.9311 60.9477 47.1161C69.2683 51.7117 74.8764 58.7759 74.8764 71.239C74.8764 95.452 51.7913 100.427 40.2487 99.8874H0.0351098V0.0351098ZM39.4408 15.0839H15.0358V42.3814H39.4408C43.7084 42.3814 52.373 38.342 52.373 28.0162C52.373 17.6903 43.7515 15.0922 39.4408 15.0839ZM15.0358 84.7726V57.5401H39.4408C45.986 57.5401 59.7312 59.213 59.7312 71.239C59.7312 84.347 45.0246 84.7726 39.4408 84.7726H15.0358Z" fill="white"/>
</svg>
