<svg width="100" height="101" viewBox="0 0 100 101" fill="none" xmlns="http://www.w3.org/2000/svg">
<path d="M93.6088 25.1897C87.7863 14.6828 66.736 -6.63232 36.6453 1.74359C6.55466 10.1195 -4.75478 39.0217 2.0728 63.2319C8.90038 87.4422 33.9501 106.501 63.8409 98.1809C93.7316 89.8606 100.144 61.1311 99.9238 50.1938C99.7984 43.9768 99.5711 42.0074 99.3983 41.4655L99.1673 41.4655L36.8515 42.0398L32.8995 56.9345L83.3383 56.3835C84.3892 56.372 84.3892 56.372 84.199 57.318C84.1037 57.7601 83.9996 58.2022 83.8866 58.6441C79.1031 77.3424 60.0672 88.6226 41.3689 83.8391C22.6705 79.0556 11.3903 60.0197 16.1738 41.3214C20.9574 22.623 39.9932 11.3428 58.6916 16.1263C67.9941 18.5062 76.2072 25.0988 80.773 32.7373L93.6088 25.1897Z" fill="white"/>
</svg>
