<svg width="100" height="101" viewBox="0 0 100 101" fill="none" xmlns="http://www.w3.org/2000/svg">
<mask id="path-1-inside-1" fill="white">
<path fill-rule="evenodd" clip-rule="evenodd" d="M100 50.0135C100 77.6278 77.6142 100.014 50 100.014C22.3858 100.014 0 77.6278 0 50.0135C0 22.3993 22.3858 0.0135169 50 0.0135169C77.6142 0.0135169 100 22.3993 100 50.0135ZM50 85.0135C69.33 85.0135 85 69.3435 85 50.0135C85 30.6836 69.33 15.0135 50 15.0135C30.67 15.0135 15 30.6836 15 50.0135C15 69.3435 30.67 85.0135 50 85.0135Z"/>
<path fill-rule="evenodd" clip-rule="evenodd" d="M50 100.014C77.6142 100.014 100 77.6278 100 50.0135C100 22.3993 77.6142 0.0135169 50 0.0135169C22.3858 0.0135169 0 22.3993 0 50.0135C0 77.6278 22.3858 100.014 50 100.014ZM50 85.0135C69.33 85.0135 85 69.3435 85 50.0135C85 30.6836 69.33 15.0135 50 15.0135C30.67 15.0135 15 30.6836 15 50.0135C15 69.3435 30.67 85.0135 50 85.0135Z"/>
</mask>
<path fill-rule="evenodd" clip-rule="evenodd" d="M100 50.0135C100 77.6278 77.6142 100.014 50 100.014C22.3858 100.014 0 77.6278 0 50.0135C0 22.3993 22.3858 0.0135169 50 0.0135169C77.6142 0.0135169 100 22.3993 100 50.0135ZM50 85.0135C69.33 85.0135 85 69.3435 85 50.0135C85 30.6836 69.33 15.0135 50 15.0135C30.67 15.0135 15 30.6836 15 50.0135C15 69.3435 30.67 85.0135 50 85.0135Z" fill="#C4C4C4"/>
<path fill-rule="evenodd" clip-rule="evenodd" d="M50 100.014C77.6142 100.014 100 77.6278 100 50.0135C100 22.3993 77.6142 0.0135169 50 0.0135169C22.3858 0.0135169 0 22.3993 0 50.0135C0 77.6278 22.3858 100.014 50 100.014ZM50 85.0135C69.33 85.0135 85 69.3435 85 50.0135C85 30.6836 69.33 15.0135 50 15.0135C30.67 15.0135 15 30.6836 15 50.0135C15 69.3435 30.67 85.0135 50 85.0135Z" fill="#C4C4C4"/>
<path d="M92.5 50.0135C92.5 73.4856 73.4721 92.5135 50 92.5135V107.514C81.7564 107.514 107.5 81.7699 107.5 50.0135H92.5ZM50 92.5135C26.5279 92.5135 7.5 73.4856 7.5 50.0135H-7.5C-7.5 81.7699 18.2436 107.514 50 107.514V92.5135ZM7.5 50.0135C7.5 26.5414 26.5279 7.51352 50 7.51352V-7.48648C18.2436 -7.48648 -7.5 18.2571 -7.5 50.0135H7.5ZM50 7.51352C73.4721 7.51352 92.5 26.5414 92.5 50.0135H107.5C107.5 18.2571 81.7564 -7.48648 50 -7.48648V7.51352ZM77.5 50.0135C77.5 65.2013 65.1878 77.5135 50 77.5135V92.5135C73.4721 92.5135 92.5 73.4856 92.5 50.0135H77.5ZM50 77.5135C34.8122 77.5135 22.5 65.2013 22.5 50.0135H7.5C7.5 73.4856 26.5279 92.5135 50 92.5135V77.5135ZM22.5 50.0135C22.5 34.8257 34.8122 22.5135 50 22.5135V7.51352C26.5279 7.51352 7.5 26.5414 7.5 50.0135H22.5ZM50 22.5135C65.1878 22.5135 77.5 34.8257 77.5 50.0135H92.5C92.5 26.5414 73.4721 7.51352 50 7.51352V22.5135Z" fill="white" mask="url(#path-1-inside-1)"/>
</svg>
