<svg width="100" height="101" viewBox="0 0 100 101" fill="none" xmlns="http://www.w3.org/2000/svg">
<path fill-rule="evenodd" clip-rule="evenodd" d="M50 100.014C22.3858 100.014 0 77.6278 0 50.0135C0 22.3993 22.3858 0.0135188 50 0.0135188C77.6142 0.0135188 100 22.3993 100 50.0135C100 62.3441 95.5365 73.6322 88.1371 82.3502L99.9694 85.5291L96.0899 100.001L73.7438 94.0271C66.6802 97.8457 58.5933 100.014 50 100.014ZM50.0369 85.0457C69.3847 85.0457 85.0691 69.3613 85.0691 50.0135C85.0691 30.6658 69.3847 14.9813 50.0369 14.9813C30.6892 14.9813 15.0047 30.6658 15.0047 50.0135C15.0047 69.3613 30.6892 85.0457 50.0369 85.0457Z" fill="white"/>
</svg>
