<svg width="75" height="100" viewBox="0 0 75 100" fill="none" xmlns="http://www.w3.org/2000/svg">
<path d="M59.2578 28.957L73.75 25.0405C72.5054 16.7662 60.4461 0.217499 38.0028 0.217499C12.3922 0.217499 5.48692 18.7962 5.23564 28.0856C5.23564 50.7191 25.475 53.7186 38.0028 55.1646C50.5305 56.6106 59.8542 62.0602 59.8542 70.9897C59.8542 79.9193 52.6434 84.7949 38.0028 84.7949C19.0852 84.7949 14.7884 71.6019 15.0047 65.0055H0.00296707C-0.0474555 76.6225 7.48191 99.8565 38.0028 99.8565C68.5237 99.8565 75.2768 80.6835 74.8383 71.0971C74.8383 48.5862 52.6369 42.0781 38.0028 40.0364C23.3687 37.9947 19.8312 34.5539 20.3007 28.0856C20.3963 23.7896 24.0705 15.1977 38.0028 15.1977C51.935 15.1977 57.9779 24.3706 59.2578 28.957Z" fill="white"/>
</svg>
